<?xml version="1.0" encoding="iso-8859-1"?>
<!-- Uploaded to: SVG Repo, www.svgrepo.com, Generator: SVG Repo Mixer Tools -->
<!DOCTYPE svg PUBLIC "-//W3C//DTD SVG 1.1//EN" "http://www.w3.org/Graphics/SVG/1.1/DTD/svg11.dtd">
<svg fill="#000000" version="1.1" id="Capa_1" xmlns="http://www.w3.org/2000/svg" xmlns:xlink="http://www.w3.org/1999/xlink" 
	 width="800px" height="800px" viewBox="0 0 44.333 44.333"
	 xml:space="preserve">
<g>
	<path d="M36.333,6.667H8c-4.418,0-8,3.582-8,8h44.333C44.333,10.249,40.752,6.667,36.333,6.667z"/>
	<path d="M0,18.667V26h19.67v2.667H0v1c0,4.418,3.582,8,8,8h28.333c4.418,0,8-3.582,8-8v-11H0z M36,30
		c-1.473,0-2.667-1.193-2.667-2.667s1.194-2.667,2.667-2.667s2.667,1.193,2.667,2.667S37.473,30,36,30z"/>
</g>
</svg>