<svg width="24" height="24" viewBox="0 0 24 24" fill="none" xmlns="http://www.w3.org/2000/svg">
<path fill-rule="evenodd" clip-rule="evenodd" d="M9.35402 6.61335C9.1149 6.73114 8.88454 6.86453 8.66427 7.01226C7.80744 7.58695 6.60803 7.73172 5.57261 7.13392L4.57261 8.86597C5.60636 9.46281 6.08125 10.5715 6.01387 11.5998C6.00522 11.7318 6.00081 11.8652 6.00081 12C6.00081 12.1348 6.00522 12.2682 6.01387 12.4002C6.08125 13.4285 5.60635 14.5372 4.5726 15.134L5.5726 16.8661C6.60802 16.2683 7.80744 16.413 8.66427 16.9877C8.88453 17.1355 9.1149 17.2689 9.35402 17.3867C10.2774 17.8415 11.0008 18.8061 11.0008 20H13.0008C13.0008 18.8061 13.7243 17.8415 14.6476 17.3867C14.8868 17.2688 15.1172 17.1354 15.3375 16.9877C16.1943 16.413 17.3936 16.2682 18.429 16.866L19.429 15.1339C18.3953 14.5371 17.9204 13.4284 17.9878 12.4001C17.9964 12.2682 18.0008 12.1347 18.0008 12C18.0008 11.8653 17.9964 11.7318 17.9878 11.5998C17.9204 10.5716 18.3953 9.4629 19.429 8.86608L18.429 7.13403C17.3936 7.7318 16.1943 7.58704 15.3375 7.01234C15.1172 6.86458 14.8868 6.73116 14.6476 6.61335C13.7243 6.15851 13.0008 5.19387 13.0008 4L11.0008 4C11.0008 5.19387 10.2773 6.15851 9.35402 6.61335ZM9.00081 4C9.00081 2.89543 9.89624 2 11.0008 2H13.0008C14.1054 2 15.0008 2.89543 15.0008 4C15.0008 4.35148 15.2161 4.6639 15.5314 4.81922C15.8507 4.97652 16.158 5.15448 16.4516 5.35138C16.7443 5.54776 17.1237 5.57825 17.429 5.40198C18.3856 4.84969 19.6088 5.17744 20.1611 6.13403L21.1611 7.86608C21.7133 8.82266 21.3856 10.0458 20.429 10.5981C20.1239 10.7743 19.9604 11.1176 19.9835 11.4691C19.995 11.6446 20.0008 11.8216 20.0008 12C20.0008 12.1784 19.995 12.3554 19.9835 12.5309C19.9604 12.8824 20.1239 13.2257 20.429 13.4019C21.3856 13.9542 21.7134 15.1773 21.1611 16.1339L20.1611 17.866C19.6088 18.8226 18.3856 19.1503 17.429 18.598C17.1237 18.4217 16.7443 18.4522 16.4516 18.6486C16.158 18.8455 15.8507 19.0235 15.5314 19.1808C15.2161 19.3361 15.0008 19.6485 15.0008 20C15.0008 21.1046 14.1054 22 13.0008 22H11.0008C9.89624 22 9.00081 21.1046 9.00081 20C9.00081 19.6485 8.78553 19.3361 8.47023 19.1808C8.15097 19.0235 7.84372 18.8456 7.55022 18.6487C7.25739 18.4523 6.87796 18.4218 6.5726 18.5981C5.61601 19.1504 4.39283 18.8227 3.84055 17.8661L2.84055 16.134C2.28826 15.1774 2.61601 13.9543 3.5726 13.402C3.87769 13.2258 4.04119 12.8825 4.01815 12.531C4.00665 12.3555 4.00081 12.1784 4.00081 12C4.00081 11.8216 4.00665 11.6445 4.01815 11.469C4.04119 11.1175 3.8777 10.7742 3.57261 10.598C2.61603 10.0457 2.28828 8.82256 2.84056 7.86597L3.84056 6.13392C4.39285 5.17734 5.61603 4.84959 6.57261 5.40187C6.87797 5.57817 7.25739 5.54768 7.55022 5.35127C7.84372 5.15442 8.15097 4.97649 8.47023 4.81922C8.78553 4.6639 9.00081 4.35148 9.00081 4Z" fill="#292F4D"/>
<path fill-rule="evenodd" clip-rule="evenodd" d="M12.0008 14C13.1054 14 14.0008 13.1046 14.0008 12C14.0008 10.8954 13.1054 10 12.0008 10C10.8962 10 10.0008 10.8954 10.0008 12C10.0008 13.1046 10.8962 14 12.0008 14ZM12.0008 16C14.2099 16 16.0008 14.2091 16.0008 12C16.0008 9.79086 14.2099 8 12.0008 8C9.79167 8 8.00081 9.79086 8.00081 12C8.00081 14.2091 9.79167 16 12.0008 16Z" fill="#292F4D"/>
</svg>
